<svg width="7" height="8" viewBox="0 0 7 8" fill="none" xmlns="http://www.w3.org/2000/svg">
<g clip-path="url(#clip0_1322_1144)">
<path d="M3.37457 4.33831C2.97791 4.41997 2.74166 4.67664 2.74166 5.04122C2.74166 5.43205 3.06541 5.74706 3.46791 5.74706C4.06582 5.74706 4.54999 5.26289 4.54999 4.66497C4.54999 4.35289 4.50624 4.04664 4.41582 3.75497C4.18541 4.06706 3.77416 4.25664 3.37457 4.33831ZM3.93749 0.695389C3.93749 0.695389 4.15332 1.46831 4.15332 2.09539C4.15332 2.69622 3.75957 3.18331 3.15874 3.18331C2.55499 3.18331 2.09999 2.69622 2.09999 2.09539L2.10874 1.99039C1.51957 2.69039 1.16666 3.59747 1.16666 4.58331C1.16666 5.87247 2.21082 6.91664 3.49999 6.91664C4.78916 6.91664 5.83332 5.87247 5.83332 4.58331C5.83332 3.01122 5.07791 1.60831 3.93749 0.695389ZM3.49999 6.33331C2.53457 6.33331 1.74999 5.54872 1.74999 4.58331C1.74999 4.13706 1.83749 3.69664 2.00082 3.29122C2.29541 3.58581 2.70374 3.76664 3.15874 3.76664C3.93457 3.76664 4.54416 3.23289 4.69874 2.47456C5.05749 3.11622 5.24999 3.83664 5.24999 4.58331C5.24999 5.54872 4.46541 6.33331 3.49999 6.33331Z" fill="white"/>
</g>
<defs>
<clipPath id="clip0_1322_1144">
<rect width="7" height="7" fill="white" transform="translate(0 0.5)"/>
</clipPath>
</defs>
</svg>
